<svg width="512" height="512" fill="none" xmlns="http://www.w3.org/2000/svg"><mask id="prefix__a" style="mask-type:alpha" maskUnits="userSpaceOnUse" x="81" y="81" width="350" height="350"><rect x="81" y="81" width="350" height="350" rx="28" fill="#D9D9D9"/></mask><g mask="url(#prefix__a)"><path fill="#FA9845" d="M202-16.65L264.965-66l294.867 376.214-62.964 49.35z"/><path fill="#FBAE3C" d="M256-76.65L318.965-126l294.867 376.214-62.964 49.35z"/><path fill="#C55469" d="M139 32.35L201.965-17l294.867 376.214-62.964 49.35z"/><path fill="#96446E" d="M90 81.35L152.965 32l294.867 376.214-62.964 49.35z"/><path fill="#623965" d="M18 111.35L80.965 62l325.153 414.855-62.965 49.35z"/><path fill="#312C4F" d="M-32 166.35L30.965 117l325.153 414.855-62.965 49.35z"/><path fill="#0C1C30" d="M-55 258.35L7.965 209l325.153 414.855-62.965 49.35zM276.4 316.18h-38.42c-6.8 0-10.88-4.08-9.52-11.22 8.16-46.24 42.16-41.48 49.3-76.16 2.04-10.2-3.4-22.44-16.66-22.44-15.98 0-23.8 8.84-26.18 22.78-1.02 6.8-4.42 9.86-11.22 8.5l-38.76-8.5c-6.12-1.36-9.18-5.1-8.84-11.22 2.04-24.48 14.96-70.04 85-70.04 76.16 0 78.88 60.18 78.54 70.38 0 56.44-39.44 61.2-51.68 89.42-2.38 5.78-5.44 8.5-11.56 8.5zm-1.36 17.34h-38.08c-6.46 0-10.2 3.4-10.2 10.2v38.08c0 6.46 3.74 10.2 10.2 10.2h38.08c6.8 0 10.2-3.74 10.2-10.2v-38.08c0-6.8-3.4-10.2-10.2-10.2z"/></g></svg>